<svg width="30" height="29" viewBox="0 0 30 29" xmlns="http://www.w3.org/2000/svg"><path d="M29.796 17.836a1.851 1.851 0 0 0-1.134-1.027c-.495-.152-1.004.006-1.467.18-.608.228-1.208.495-1.85.612a3.933 3.933 0 0 1-.633-.017c.249-.224.483-.465.68-.745a5.53 5.53 0 0 0 .748-1.544c.089-.307.093-.637.073-.954a2.902 2.902 0 0 0-.29-1.122 2.28 2.28 0 0 0-.4-.56c-.19-.2-.413-.309-.666-.408a1.146 1.146 0 0 0-.413-.062 2.63 2.63 0 0 0-.157.005c-.303.018-.582.137-.85.273-.126.065-.235.176-.345.267l-.204.172c-.473.405-.923.837-1.4 1.234a6.075 6.075 0 0 1-1.103.627c-.145.053-.29.099-.438.144l-.001.001c-.018-.003-.036-.008-.053-.012.059-.055.127-.102.184-.158.295-.289.552-.616.81-.94.295-.374.586-.752.818-1.17.438-.788.685-1.635.86-2.512a9.556 9.556 0 0 0 .169-1.518c.018-.481-.05-.96-.133-1.433a9.557 9.557 0 0 0-.295-1.229c-.113-.362-.25-.715-.384-1.069a10.848 10.848 0 0 0-.558-1.257 4.396 4.396 0 0 0-.337-.509 6.076 6.076 0 0 0-.548-.671c-.313-.323-.693-.582-1.051-.851A9.023 9.023 0 0 0 18.35.878c-.422-.234-.891-.392-1.352-.527a8.616 8.616 0 0 0-1.37-.277 12.469 12.469 0 0 0-1.324-.073L14.145 0a8.8 8.8 0 0 0-1.274.084 8.23 8.23 0 0 0-1.356.293c-.453.145-.885.376-1.307.594-.82.426-1.51 1.051-2.15 1.708a5.073 5.073 0 0 0-.405.481 5.372 5.372 0 0 0-.461.673c-.242.43-.453.875-.63 1.338a7.29 7.29 0 0 0-.335 1.299c-.086.473-.142.958-.16 1.439-.016.441-.026.881-.01 1.322.018.497.127.994.234 1.477.19.877.51 1.75.93 2.542.18.342.396.661.628.97.273.364.546.742.87 1.063l.1.09-.09.04a.867.867 0 0 0-.446-.017 9.68 9.68 0 0 1-.73.161 3.983 3.983 0 0 1-.488-.011 3.224 3.224 0 0 1-.515-.15 5.794 5.794 0 0 1-.882-.505c-.317-.22-.618-.485-.96-.663-.425-.223-.915-.393-1.394-.393-.333 0-.66.082-.958.284-.83.56-1.008 1.736-.695 2.633.148.42.336.845.592 1.212.186.269.384.519.643.721.202.154.402.295.622.422a8.695 8.695 0 0 0 1.593.733c-.233.353-.462.71-.714 1.049a3.855 3.855 0 0 1-.344.356 3.467 3.467 0 0 1-.484.269 2.292 2.292 0 0 1-.345.096 3.31 3.31 0 0 1-.527-.005c-.427-.086-.863-.24-1.3-.182a2.022 2.022 0 0 0-.776.257c-.2.121-.372.307-.471.517-.204.435-.188.893-.022 1.338.075.202.156.4.267.584.113.19.269.362.412.533.105.129.24.236.368.34.176.147.358.275.558.386.342.19.74.311 1.12.404.249.059.509.081.764.103.202.018.404.018.608 0a7.72 7.72 0 0 0 3.294-1.045c.275-.17.529-.378.776-.586.202-.172.378-.376.558-.57.075-.081.139-.171.209-.256-.005.068-.014.135-.018.203-.02.38-.024.764.008 1.142.038.457.119.895.255 1.332.12.392.257.804.487 1.144.24.356.52.697.863.96.269.21.52.38.86.461.266.061.52.038.783-.012.234-.046.44-.172.622-.315.249-.194.398-.519.467-.82.057-.244.057-.513.053-.762-.01-.74-.128-1.482-.056-2.222a4.41 4.41 0 0 1 .23-.866l.209-.472c.02.033.04.067.062.1.214.336.445.661.689.978.255.335.513.673.8.98.243.261.507.501.774.736.606.534 1.368.944 2.13 1.2a6.412 6.412 0 0 0 2.475.315c.277-.02.552-.059.816-.15a4.9 4.9 0 0 0 .826-.372 3.013 3.013 0 0 0 1.192-1.263 2.56 2.56 0 0 0 .27-.954 1.28 1.28 0 0 0-.128-.697c-.12-.23-.315-.4-.527-.538a2.431 2.431 0 0 0-.774-.303c-.268-.058-.545-.083-.82-.115a2.488 2.488 0 0 1-.332-.081 3.241 3.241 0 0 1-.354-.223 3.606 3.606 0 0 1-.455-.453 5.602 5.602 0 0 1-.49-.851c.183.121.372.234.565.331a6.02 6.02 0 0 0 1.233.485 9.89 9.89 0 0 0 1.322.245c.416.048.828.073 1.245.079.443.006.895-.063 1.33-.133.368-.057.727-.214 1.069-.348.402-.158.794-.339 1.18-.534.394-.202.76-.44 1.077-.752.139-.137.257-.299.374-.453.097-.127.19-.257.265-.398.143-.269.242-.554.297-.853.038-.202.075-.412.055-.618a2.081 2.081 0 0 0-.195-.725zm-5.697-3.986c.057-.039.114-.073.175-.105.038-.013.077-.026.116-.037l.04.001.05.052c.038.056.07.112.102.172.039.115.068.23.092.35.01.141.01.282.004.424a3.117 3.117 0 0 1-.133.456c-.133.29-.285.561-.471.824a5.476 5.476 0 0 1-.701.686c-.098.072-.2.141-.301.21-.047-.031-.095-.057-.141-.089a10.82 10.82 0 0 1-.73-.692 3.743 3.743 0 0 0-.446-.371c.34-.211.667-.445.977-.708.457-.388.9-.797 1.367-1.173zm-20.43 3.37a5.686 5.686 0 0 1-.393-.703 3.699 3.699 0 0 1-.16-.545c-.001-.067 0-.134.004-.201.016-.073.036-.143.06-.212l.04-.073.028-.026.003-.002.002-.001h.126c.119.028.234.061.35.102.323.164.612.38.904.594.31.228.624.443.972.612.236.115.479.214.725.301.149.052.304.081.46.103-.16.231-.315.467-.456.712-.105.182-.22.357-.327.537a5.614 5.614 0 0 1-.814-.249 7.154 7.154 0 0 1-1.278-.704 2.586 2.586 0 0 1-.246-.245zm18.678 7.538s0-.001 0 0l-.001-.001v.001zm5.96-5.996c-.025.13-.06.257-.104.383a3.576 3.576 0 0 1-.326.532c-.087.1-.18.195-.276.285-.354.248-.742.435-1.136.612-.5.206-.996.396-1.531.491a8.07 8.07 0 0 1-1.737-.018 7.789 7.789 0 0 1-1.517-.39 6.447 6.447 0 0 1-.91-.518c-.296-.2-.577-.42-.874-.62-.141-.095-.275-.192-.428-.269-.208-.103-.44-.222-.681-.194a1.028 1.028 0 0 0-.632.269c-.131.115-.21.303-.257.465a1.44 1.44 0 0 0-.048.424c.004.301.055.612.139.899.059.208.158.406.249.602.073.158.143.319.222.475.162.315.329.63.53.921.268.388.603.693.975.978.305.234.643.432 1.023.517.322.072.65.091.979.125.114.021.226.049.336.084a1.848 1.848 0 0 1-.05.16 2.983 2.983 0 0 1-.186.331 2.64 2.64 0 0 1-.237.236 3.758 3.758 0 0 1-.577.333 3.197 3.197 0 0 1-.528.154 5.99 5.99 0 0 1-1.128-.014 5.835 5.835 0 0 1-1.017-.268 7.668 7.668 0 0 1-1.277-.726c-.628-.513-1.146-1.134-1.645-1.772a8.768 8.768 0 0 1-.612-.89c-.101-.17-.2-.342-.293-.519-.17-.317-.331-.637-.707-.748-.602-.178-1.065.313-1.372.756-.194.281-.305.618-.453.924-.095.194-.19.392-.253.598-.051.174-.081.354-.113.531a6.109 6.109 0 0 0-.067 1.275c.027.626.14 1.245.093 1.871a2.019 2.019 0 0 1-.203-.126 4.243 4.243 0 0 1-.494-.482 3.231 3.231 0 0 1-.265-.455 6.487 6.487 0 0 1-.334-1.162 9.43 9.43 0 0 1 .035-2.077c.068-.464.142-.929.205-1.395.03-.218.038-.398-.08-.596a.774.774 0 0 0-.46-.354.76.76 0 0 0-.44.024.782.782 0 0 0-.81.357c-.258.417-.513.841-.802 1.236-.353.437-.74.851-1.177 1.206a4.16 4.16 0 0 1-.4.274 8.253 8.253 0 0 1-.655.335 7.55 7.55 0 0 1-1.47.382 5.724 5.724 0 0 1-.473.038 3.877 3.877 0 0 1-.55-.032 5.314 5.314 0 0 1-.892-.239 3.21 3.21 0 0 1-.367-.213 3.651 3.651 0 0 1-.44-.449 1.615 1.615 0 0 1-.115-.197l-.016-.044c.243.054.482.127.729.161.46.063.895.073 1.352-.046.374-.097.742-.293 1.069-.497.465-.289.772-.74 1.079-1.18.228-.323.44-.655.653-.986.22-.341.439-.679.643-1.027.186-.319.362-.643.544-.964.163-.286.346-.556.54-.82.099-.115.196-.226.299-.336a2.46 2.46 0 0 1 .265-.235 3.7 3.7 0 0 1 .538-.311c.176-.06.356-.102.539-.135.284-.02.563-.002.849.026.04.004.084-.018.127-.024a.893.893 0 0 0 .706-.252.921.921 0 0 0 0-1.291c-.383-.379-.91-.562-1.348-.867a5.068 5.068 0 0 1-.542-.503c-.202-.221-.386-.455-.572-.689a7.697 7.697 0 0 1-.803-1.365 11.135 11.135 0 0 1-.627-2.216c-.08-.757-.048-1.534.037-2.29a8.401 8.401 0 0 1 .428-1.638 8.93 8.93 0 0 1 .764-1.358 9.422 9.422 0 0 1 1.37-1.33 9.333 9.333 0 0 1 1.427-.795c.246-.09.492-.167.748-.228.21-.05.423-.085.636-.115a9.974 9.974 0 0 1 1.282-.039c.406.009.81.021 1.215.063a8.418 8.418 0 0 1 1.576.41c.62.285 1.163.684 1.702 1.098.239.194.453.401.65.638.119.159.234.321.339.49.104.165.186.348.265.526.187.461.355.93.5 1.404.145.466.24.946.312 1.429.049.501.02.995-.038 1.492a9.529 9.529 0 0 1-.55 2.079 8.438 8.438 0 0 1-.885 1.425 9.915 9.915 0 0 1-1.508 1.543c-.26.187-.534.35-.791.541-.184.141-.327.277-.39.509a.853.853 0 0 0 .085.655.861.861 0 0 0 .509.39c.054.015.12.01.184.014.17.077.385.121.554.054a1.82 1.82 0 0 1 .244-.078c.247-.01.497.015.743.046.334.054.653.123.968.238.258.126.507.264.74.428.22.2.42.422.637.628.259.249.554.463.853.665.253.17.527.311.806.432.208.091.414.176.626.253.192.071.4.099.604.127.22.03.438.057.659.069.21.01.422-.016.628-.048.313-.046.61-.125.907-.234.285-.103.57-.216.855-.321.257-.097.51-.2.777-.265h.022l.02.005.014.014.025.046c.017.049.03.1.043.151 0 .042-.001.08-.003.118zM16.82 9.37a.839.839 0 0 1-.831-.831c0-.453.378-.831.83-.831.454 0 .832.378.832.831a.839.839 0 0 1-.831.831zm-3.422-1.021c0 .42-.35.77-.77.77-.42 0-.77-.35-.77-.77 0-.42.35-.77.77-.77.42 0 .77.35.77.77z" fill="#2860F5"/></svg>