<svg width="25" height="28" viewBox="0 0 25 28" xmlns="http://www.w3.org/2000/svg"><path d="M9.554 28a.719.719 0 0 1-.52-.233.787.787 0 0 1-.221-.536c0-.419.339-.757.773-.768.354-.01.709-.016 1.063-.016l.443-.003c.146 0 .293.003.437.015l.222.019v-.873c.002-.584.008-1.166.022-1.752a.756.756 0 0 1 .05-.221l.066-.2-.203-.057c-.693-.197-1.374-.497-2.032-.789l-.161-.07a7.641 7.641 0 0 1-1.228-.665c-.415-.279-.82-.575-1.223-.869-.49-.356-.96-.716-1.33-1.214-.251-.337-.45-.724-.641-1.1l-.184-.358c-.217-.419-.442-.852-.615-1.293a7.868 7.868 0 0 1-.257-.778 5.635 5.635 0 0 1-.131-.756l-.013-.102a27.668 27.668 0 0 1-.141-1.549c-.03-.425-.061-.85-.107-1.273l-.075-.483a1.117 1.117 0 0 1 .005-.49l.05-.176-.17-.066a26.75 26.75 0 0 1-.74-.307 87.689 87.689 0 0 1-.872-.392c-.256-.116-.491-.261-.73-.407l-.176-.107a2.764 2.764 0 0 1-.612-.463c-.32-.324-.395-.811-.185-1.187.134-.242.379-.454.595-.641.52-.446 1.107-.85 1.674-1.24l.192-.132c.674-.467 1.37-.918 2.07-1.344a.725.725 0 0 1 .226-.086l.108-.024.083-.246c.452-.975 1.04-2.081 1.975-2.89.329-.285.715-.606 1.129-.802.305-.144.615-.283.932-.401a11.746 11.746 0 0 1 1.61-.493A7.211 7.211 0 0 1 12.27 0c.52 0 1.009.071 1.452.211a6.555 6.555 0 0 1 1.48.66c.219.135.432.278.64.43.32.229.573.41.76.622a6.322 6.322 0 0 1 1.053 1.635c.21.474.415.957.596 1.44.138.373.309.868.413 1.392.086.43.144.867.2 1.301l.03.229c.06.464.118.928.173 1.393l.12.98a15.7 15.7 0 0 0 .329 1.624c.12.456.24.902.41 1.34.133.277.306.62.53.944.15.177.294.327.456.469l.218.154c.118.082.237.164.352.252.13.096.204.15.27.212l.144.193c.09.129.123.393.07.567-.042.14-.116.272-.235.419l-.148.183.202.119c.338.2.675.397 1.03.569.243.091.468.161.705.209.234.048.413.084.595.166a.826.826 0 0 1 .44.516c.156.626-.293 1.31-.574 1.66-.243.304-.551.601-1 .965-.434.352-.91.718-1.44 1.011-.438.241-.89.452-1.342.661l-.324.15c-.4.184-.8.371-1.214.522-.995.37-2.101.457-3.053.493l-.174.008c-.357.015-.713.03-1.07.03l-.262-.003c-.197-.005-.393-.024-.588-.042l-.215-.021-.043.212-.011.329c-.015.436-.03.871-.035 1.306-.004.445-.008.849.03 1.244l.04.303c.02.165-.098.383-.218.505a.749.749 0 0 1-.526.217l-.25-.056-.164.15a.681.681 0 0 1-.357.095 1.14 1.14 0 0 1-.19-.018l-.193-.005c-.178 0-.357.007-.534.014L9.554 28zM5.827 6.023l-.04.099a.814.814 0 0 1-.325.404C4.394 7.17 3.265 7.864 2.22 8.655l-.363.295.262.145c.322.178.658.334.997.48l.554.236c.398.158.725.26 1.054.363.414.129.652.544.54.944a.768.768 0 0 1-.105.201l-.057.087.038.097c.133.756.204 1.409.244 2.075.03.489.066.978.12 1.465.035.245.07.486.138.717.069.239.149.469.238.696.185.381.376.743.567 1.104l.137.258c.174.327.348.655.556.962.202.229.414.425.704.659.544.41 1.057.797 1.597 1.128.472.291.985.516 1.48.733.545.225.957.372 1.352.484.43.121.868.194 1.202.245.462.037.912.053 1.365.053.649 0 1.312-.036 1.97-.106.31-.049.61-.102.906-.172.366-.081.707-.218 1.009-.339l.248-.106c.897-.382 1.91-.864 2.817-1.539.294-.234.59-.472.859-.732l.236-.229-.311-.108a6.173 6.173 0 0 1-.616-.252c-.32-.149-.624-.318-.93-.487a19.25 19.25 0 0 1-.245-.136c-.142-.079-.262-.196-.386-.301l-.122.1-.093.072c-.102.08-.203.16-.31.236-.92.658-1.86 1.086-2.788 1.27a8.71 8.71 0 0 1-1.663.159c-.244 0-.487-.008-.73-.027a5.123 5.123 0 0 1-.838-.121c-.526-.14-1.054-.368-1.55-.589a29.732 29.732 0 0 1-1.155-.547c-.93-.465-1.757-1.325-2.33-2.42-.224-.431-.096-.93.299-1.162a.83.83 0 0 1 .423-.11c.319 0 .597.156.726.404.137.266.285.521.458.765.233.273.477.545.757.785.34.235.692.412 1.032.585.46.233.872.426 1.287.609.17.071.34.137.513.178.176.044.35.079.526.108.332.031.648.047.964.047.257 0 .512-.01.77-.033.509-.085.954-.2 1.374-.355.727-.316 1.309-.737 1.846-1.148l.469-.355-.377-.278a3.69 3.69 0 0 1-.786-.851c-.394-.577-.698-1.261-.931-2.092a18.411 18.411 0 0 1-.442-2.116 37.491 37.491 0 0 1-.183-1.459l-.086-.738-.037-.275c-.08-.6-.162-1.223-.312-1.826-.151-.618-.401-1.216-.643-1.792a7.608 7.608 0 0 0-.771-1.4 4.298 4.298 0 0 0-.491-.484 8.817 8.817 0 0 0-1.37-.825 6.434 6.434 0 0 0-1.006-.294 4.845 4.845 0 0 0-.537-.033 5.74 5.74 0 0 0-.582.037 7.467 7.467 0 0 0-1.295.286c-.383.128-.76.271-1.134.423a6.104 6.104 0 0 0-.821.462c-.32.266-.592.526-.847.809a7.173 7.173 0 0 0-.57.886c-.203.386-.39.776-.57 1.171-.075.169-.304.312-.496.357l-.148.029zm4.465.024a.682.682 0 0 1-.674-.674c0-.366.309-.673.674-.673.365 0 .674.308.674.674a.681.681 0 0 1-.674.673z" fill="#EA612D"/></svg>