<svg width="27" height="28" viewBox="0 0 27 28" xmlns="http://www.w3.org/2000/svg"><path d="M25.875.685c-.132-.261-.433-.45-.703-.53-.252-.075-.527-.1-.786-.13A4.157 4.157 0 0 0 23.929 0c-.327 0-.651.037-.977.1a6 6 0 0 0-1.333.431c-.459.207-.852.497-1.228.829a7.416 7.416 0 0 0-.884.897 4.295 4.295 0 0 0-.166.217 1.124 1.124 0 0 0-.034-.036c-.333-.35-.686-.681-1.093-.946-.384-.25-.826-.416-1.253-.576a5.339 5.339 0 0 0-1.335-.325c-.416-.041-.839-.023-1.254 0a7.458 7.458 0 0 0-.749.083.949.949 0 0 0-.557.271c-.186.197-.231.423-.258.683-.032.325.019.671.049.997.041.448.103.895.182 1.337.068.384.15.764.286 1.13.092.245.196.485.312.718.152.303.363.566.594.812.292.31.658.564 1.012.799.173.117.372.198.562.284.265.118.53.222.812.288l.008.001c.034.301.07.602.088.906.024.404.009.801-.036 1.201-.02.134-.043.267-.07.4a7.307 7.307 0 0 0-.21-.185 9.703 9.703 0 0 0-1.066-.762 8.921 8.921 0 0 0-1.023-.53c-.384-.175-.766-.35-1.151-.513-.758-.323-1.54-.647-2.349-.814-.833-.173-1.683-.29-2.533-.197-.559.06-1.127.12-1.666.284-.461.139-.906.352-1.339.562-.34.166-.666.372-.972.594-.387.276-.75.564-1.091.895-.278.271-.534.562-.792.85a9.949 9.949 0 0 0-.814 1.016c-.504.743-.869 1.576-1.123 2.436-.12.408-.188.831-.254 1.251-.073.463-.122.931-.164 1.397a14.51 14.51 0 0 0-.019 2.404c.036.465.088.923.182 1.38.041.201.113.397.179.592.081.233.173.468.276.692.342.747.797 1.437 1.288 2.093.269.361.549.7.876 1.01.164.156.339.303.51.45.293.254.591.506.893.75.668.534 1.465.95 2.296 1.164.792.203 1.599.352 2.405.48.833.134 1.668.22 2.513.196.444-.011.89-.117 1.32-.214.399-.09.799-.173 1.189-.297.444-.141.882-.295 1.309-.482.376-.162.73-.361 1.085-.566.4-.233.782-.493 1.153-.768a.81.81 0 0 0 .159-.12c.236-.179.468-.364.698-.551.628-.512 1.142-1.115 1.633-1.757.495-.647.901-1.382 1.241-2.12.177-.382.335-.771.504-1.157.179-.412.333-.826.466-1.253.115-.367.226-.734.331-1.102.113-.401.186-.814.256-1.224.145-.85.243-1.708.254-2.569.008-.508-.058-1.018-.117-1.522a36.066 36.066 0 0 0-.246-1.723 11.865 11.865 0 0 0-.331-1.527c-.103-.34-.199-.69-.338-1.021a4.05 4.05 0 0 0 .904-.373 8.224 8.224 0 0 0 1.16-.856c.143-.122.269-.269.391-.412.25-.295.48-.6.666-.94.122-.226.211-.476.308-.711.083-.203.16-.408.229-.615.158-.459.214-.948.273-1.427.049-.404.109-.816.105-1.224a1.652 1.652 0 0 0-.186-.78zm-8.923 5.648l.07-.01h.001a1.73 1.73 0 0 1-.071.01zm.08-.011l.057-.008-.057.008zM2.107 21.145a13.294 13.294 0 0 1-.228-.644c-.071-.214-.113-.436-.159-.655a15.281 15.281 0 0 1-.093-1.494c.229-.087.459-.168.694-.242.262-.082.537-.124.81-.165l.083-.007c-.005 1.4.064 2.797.309 4.182.102.578.26 1.146.435 1.707-.183-.174-.371-.343-.533-.535-.499-.68-.964-1.382-1.318-2.147zm4.345-3.267c.01 1.491.037 2.991.304 4.46.227 1.242.536 2.469 1.047 3.617a10.366 10.366 0 0 1-1.503-.42c-.042-.019-.081-.043-.124-.063-.111-.185-.234-.363-.323-.559a22.413 22.413 0 0 1-.583-1.662 15.326 15.326 0 0 1-.418-1.878c-.139-1.174-.148-2.353-.127-3.533.194-.004.388-.013.581-.011.383.003.765.021 1.146.049zm3.219 8.381c-.013-.029-.014-.06-.03-.088-.219-.36-.409-.731-.584-1.113a12.987 12.987 0 0 1-.58-1.791 22.687 22.687 0 0 1-.372-1.879 16.605 16.605 0 0 1-.095-1.851c.005-.488.013-.976.02-1.464.225.041.451.079.675.126.363.075.723.182 1.08.283l-.001.012c.109.965.229 1.928.386 2.885.055.331.105.668.192.991.096.369.199.735.307 1.1.196.671.376 1.347.638 1.995.12.295.25.595.4.879l-.032.007c-.666.049-1.339-.012-2.004-.092zm3.699-.285c-.039-.064-.086-.124-.123-.19a9.353 9.353 0 0 1-.4-.817 16.752 16.752 0 0 1-.542-1.674c-.085-.301-.173-.606-.241-.912-.08-.366-.147-.728-.205-1.098-.094-.719-.176-1.441-.257-2.162.108.043.217.084.324.128.476.209.944.431 1.412.657.002.009.001.018.004.026a27.52 27.52 0 0 0 .621 3.165c.147.551.299 1.104.53 1.627.103.231.218.457.34.679l.022.037c-.104.052-.203.114-.31.162-.385.145-.779.262-1.175.372zm3.117-1.515l.055-.042-.029.023a.248.248 0 0 0-.026.019zm.706-.573a17.16 17.16 0 0 1-.386.318l-.206.164a8.457 8.457 0 0 0-.124.096c-.082.059-.169.109-.252.166a.943.943 0 0 0-.016-.031 12.262 12.262 0 0 1-.272-.552c-.239-.646-.382-1.317-.514-1.994-.063-.318-.107-.638-.162-.957.151.121.302.242.444.374.218.203.429.414.645.621.387.367.794.715 1.141 1.12.043.061.083.124.121.189.011.019.03.03.043.048-.15.149-.298.301-.462.438zm6.965-21.011c-.048.287-.107.57-.196.846-.075.232-.162.459-.253.685a3.883 3.883 0 0 1-.378.664c-.14.169-.281.333-.435.49-.149.152-.321.281-.489.412a4.337 4.337 0 0 1-.596.358c-.303.117-.613.21-.929.287-.44.107-.698.596-.579 1.023.009.034.032.058.046.089a.699.699 0 0 0 .077.601c.091.136.167.278.236.426.14.365.264.746.351 1.126.098.429.164.861.223 1.296.087.722.145 1.443.193 2.17.047.727-.015 1.455-.105 2.177a15.045 15.045 0 0 1-.365 1.794A18.922 18.922 0 0 1 20.414 19c-.128.294-.262.587-.392.879-.139.314-.278.628-.444.929-.249.45-.523.884-.814 1.309-.416-.493-.96-.88-1.44-1.299-.299-.263-.594-.525-.905-.775-.384-.305-.79-.577-1.2-.844a9.869 9.869 0 0 0-1.014-.555c-.384-.184-.767-.371-1.157-.54-.831-.361-1.67-.69-2.535-.959a21.046 21.046 0 0 0-1.977-.489c-.715-.149-1.446-.214-2.172-.28a18.536 18.536 0 0 0-1.931-.081c-.376.008-.747.019-1.121.049-.303.024-.602.062-.901.105a4.786 4.786 0 0 0-.739.176c.022-.294.047-.589.08-.883.054-.356.117-.708.195-1.061.077-.348.2-.683.327-1.016.107-.241.219-.478.348-.71.148-.264.313-.514.491-.76.53-.657 1.101-1.291 1.755-1.827.265-.193.535-.387.823-.547.306-.17.617-.324.938-.466.195-.073.388-.143.589-.2.199-.056.405-.086.608-.118.31-.038.619-.067.932-.087.318-.019.644.026.962.062.459.068.913.151 1.357.288.472.144.933.33 1.391.513.502.216 1.002.44 1.494.674.47.223.906.512 1.323.824.194.165.379.335.561.513.308.299.662.664 1.119.664a.836.836 0 0 0 .572-.233c.132-.132.19-.25.258-.419.049-.12.088-.246.124-.372.071-.246.135-.495.19-.747.227-1.065.172-2.151.038-3.224a.86.86 0 0 0 .077-.347.865.865 0 0 0-.254-.611c-.145-.145-.401-.282-.613-.254a13.847 13.847 0 0 0-.175.022 1.539 1.539 0 0 1-.214.006 4.811 4.811 0 0 1-.62-.199 4.655 4.655 0 0 1-.75-.447 3.702 3.702 0 0 1-.444-.414 4.752 4.752 0 0 1-.316-.56c-.234-.606-.37-1.239-.469-1.882a9.724 9.724 0 0 1-.054-.565l-.012-.15c.421-.03.847-.035 1.266.005.296.064.577.156.859.264.341.152.668.321.976.535.256.22.487.46.701.723l.423.552c.062.081.126.16.188.239a.912.912 0 0 0 .275.243c.077.041.158.077.241.105a.913.913 0 0 0 .47 0c.276-.039.517-.29.63-.532a4.314 4.314 0 0 1 .456-.808c.3-.363.641-.692 1.007-.989.193-.133.39-.243.6-.341.317-.117.641-.199.972-.254.289-.022.575-.009.862.022l.013.002a8.452 8.452 0 0 1-.084 1.017zM6.157 13.13a.826.826 0 0 1-.818.818.826.826 0 0 1-.818-.818c0-.446.372-.818.818-.818.446 0 .818.373.818.818zm3.953 0a.826.826 0 0 1-.818.818.826.826 0 0 1-.818-.818c0-.446.372-.818.818-.818.446 0 .818.373.818.818z" fill="#2C247F"/></svg>